<svg width="26" height="25" viewBox="0 0 26 25" fill="none" xmlns="http://www.w3.org/2000/svg">
<g id="Frame">
<path id="Vector" d="M9.75 13.2813L12.1875 15.625L16.25 10.1563M22.75 12.5C22.75 13.8208 22.0675 14.9896 21.0243 15.6958C21.1367 16.3133 21.0926 16.9477 20.896 17.5454C20.6993 18.143 20.3557 18.6863 19.8943 19.1292C19.4337 19.5728 18.8687 19.9031 18.2472 20.0923C17.6256 20.2814 16.9658 20.3237 16.3237 20.2156C15.9491 20.7286 15.4514 21.1473 14.8729 21.4361C14.2943 21.725 13.6519 21.8755 13 21.875C11.6263 21.875 10.4108 21.2187 9.67634 20.2156C9.03417 20.3236 8.3744 20.2813 7.75286 20.0921C7.13133 19.903 6.56632 19.5727 6.10567 19.1292C5.6443 18.6863 5.30073 18.143 5.10404 17.5454C4.90736 16.9477 4.86335 16.3133 4.97575 15.6958C4.44223 15.3356 4.00684 14.8571 3.70644 14.3008C3.40604 13.7445 3.24947 13.1268 3.25 12.5C3.25 11.1792 3.9325 10.0104 4.97575 9.30417C4.86335 8.6867 4.90736 8.05228 5.10404 7.45463C5.30073 6.85699 5.6443 6.31372 6.10567 5.87083C6.56632 5.42729 7.13133 5.09698 7.75286 4.90786C8.3744 4.71874 9.03417 4.67639 9.67634 4.78438C10.051 4.27144 10.5487 3.85284 11.1272 3.564C11.7057 3.27516 12.3481 3.12458 13 3.125C14.3737 3.125 15.5892 3.78125 16.3237 4.78438C16.9658 4.67639 17.6256 4.71874 18.2471 4.90786C18.8687 5.09698 19.4337 5.42729 19.8943 5.87083C20.3556 6.31377 20.6991 6.85704 20.8958 7.45467C21.0925 8.0523 21.1366 8.6867 21.0243 9.30417C21.5578 9.66436 21.9932 10.1429 22.2936 10.6992C22.594 11.2555 22.7505 11.8732 22.75 12.5Z" stroke="#EFAC6D" stroke-width="1.5" stroke-linecap="round" stroke-linejoin="round"/>
</g>
</svg>
