<svg width="21" height="18" viewBox="0 0 21 18" fill="none" xmlns="http://www.w3.org/2000/svg">
<path d="M4.73857 12.3968C5.97188 12.8226 6.84404 13.871 6.84404 15.0967C6.84404 16.7001 5.35165 17.9999 3.5107 17.9999C1.66976 17.9999 0.177368 16.7001 0.177368 15.0967C0.177368 13.8326 1.10493 12.7572 2.39959 12.3587V6.22182C1.10493 5.82327 0.177368 4.74788 0.177368 3.48379C0.177368 1.88039 1.66976 0.580566 3.5107 0.580566C5.35165 0.580566 6.84404 1.88039 6.84404 3.48379C6.84404 4.74788 5.91647 5.82327 4.62181 6.22182V9.28986C5.55032 8.68241 6.70447 8.3225 7.95515 8.3225H12.3996C13.9368 8.3225 15.2309 7.41621 15.6161 6.18371C14.3828 5.75787 13.5107 4.70954 13.5107 3.48379C13.5107 1.88039 15.003 0.580566 16.844 0.580566C18.685 0.580566 20.1774 1.88039 20.1774 3.48379C20.1774 4.77399 19.211 5.86762 17.8745 6.24565C17.4243 8.52428 15.1444 10.258 12.3996 10.258H7.95515C6.41796 10.258 5.1238 11.1643 4.73857 12.3968Z" fill="#6B6B6B"/>
</svg>
