<svg width="20" height="18" viewBox="0 0 20 18" fill="none" xmlns="http://www.w3.org/2000/svg">
<path d="M9.99997 17.6539C4.95506 17.6539 0.865356 13.7794 0.865356 9.00004C0.865356 4.22065 4.95506 0.346191 9.99997 0.346191C15.0448 0.346191 19.1346 4.22065 19.1346 9.00004C19.1346 13.7794 15.0448 17.6539 9.99997 17.6539ZM7.90816 15.6353C7.02887 13.8686 6.48983 11.92 6.37107 9.86542H2.74881C3.11065 12.6143 5.1736 14.8628 7.90816 15.6353ZM8.20109 9.86542C8.33848 11.9759 8.97488 13.9584 9.99997 15.7085C11.0251 13.9584 11.6615 11.9759 11.7989 9.86542H8.20109ZM17.2511 9.86542H13.6289C13.5101 11.92 12.9711 13.8686 12.0918 15.6353C14.8263 14.8628 16.8893 12.6143 17.2511 9.86542ZM2.74881 8.13465H6.37107C6.48983 6.08003 7.02887 4.13144 7.90816 2.36475C5.1736 3.13734 3.11065 5.38576 2.74881 8.13465ZM8.20109 8.13465H11.7989C11.6615 6.02417 11.0251 4.0416 9.99997 2.29157C8.97488 4.0416 8.33848 6.02417 8.20109 8.13465ZM12.0918 2.36475C12.9711 4.13144 13.5101 6.08003 13.6289 8.13465H17.2511C16.8893 5.38576 14.8263 3.13734 12.0918 2.36475Z" fill="#6B6B6B"/>
</svg>
