<svg width="333" height="231" viewBox="0 0 333 231" fill="none" xmlns="http://www.w3.org/2000/svg">
<path d="M1.5625 20.0312C1.5625 9.526 10.0885 1 20.5938 1H122.094C132.599 1 141.125 9.526 141.125 20.0312V83.4688C141.125 93.974 132.599 102.5 122.094 102.5H20.5938C15.5463 102.5 10.7057 100.495 7.13663 96.9259C3.56757 93.3568 1.5625 88.5162 1.5625 83.4688V20.0312ZM204.562 45.4062C204.562 34.901 213.088 26.375 223.594 26.375H312.406C322.911 26.375 331.438 34.901 331.438 45.4062V184.969C331.438 195.474 322.911 204 312.406 204H223.594C218.546 204 213.706 201.995 210.137 198.426C206.568 194.857 204.562 190.016 204.562 184.969V45.4062ZM26.9375 172.281C26.9375 161.776 35.4635 153.25 45.9688 153.25H134.781C145.286 153.25 153.812 161.776 153.812 172.281V210.344C153.812 220.849 145.286 229.375 134.781 229.375H45.9688C40.9213 229.375 36.0807 227.37 32.5116 223.801C28.9426 220.232 26.9375 215.391 26.9375 210.344V172.281Z" fill="url(#paint0_linear_313_4)" stroke="black" stroke-width="1.5" stroke-linecap="round" stroke-linejoin="round"/>
<defs>
<linearGradient id="paint0_linear_313_4" x1="166.5" y1="1" x2="166.5" y2="229.375" gradientUnits="userSpaceOnUse">
<stop stop-color="#EFAC6D"/>
<stop offset="1" stop-color="#FF856A"/>
</linearGradient>
</defs>
</svg>
