<svg width="54" height="42" viewBox="0 0 54 42" fill="none" xmlns="http://www.w3.org/2000/svg">
<g id="JL Logo" clip-path="url(#clip0_264_110)">
<path id="Vector" d="M13.417 11.2695C13.417 5.04554 18.4401 0 24.6366 0C25.1328 0 25.5351 0.404047 25.5351 0.902464V15.2484C25.5351 15.6177 25.2369 15.9172 24.8693 15.9172H13.4959C13.4523 15.9172 13.417 15.8818 13.417 15.8379V11.2695Z" fill="#EFAC6D"/>
<path id="Vector_2" d="M0.5 22.8057C0.5 19.4445 3.21272 16.7198 6.55905 16.7198C9.90537 16.7198 12.6181 19.4445 12.6181 22.8057V32.1358C12.6181 32.6341 12.2158 33.0382 11.7196 33.0382H8.62312C4.13684 33.0382 0.5 29.3852 0.5 24.879V22.8057Z" fill="#EFAC6D"/>
<path id="Vector_3" d="M13.417 17.3885C13.417 17.0192 13.7151 16.7198 14.0828 16.7198H24.8693C25.2369 16.7198 25.5351 17.0192 25.5351 17.3885V32.3694C25.5351 32.7387 25.2369 33.0382 24.8693 33.0382H14.0828C13.7151 33.0382 13.417 32.7387 13.417 32.3694V17.3885Z" fill="#EFAC6D"/>
<path id="Vector_4" d="M28.4648 9.46298C28.4648 8.96456 28.8671 8.56052 29.3633 8.56052C35.5598 8.56052 40.5829 13.606 40.5829 19.83V24.7977C40.5829 24.8426 40.5467 24.879 40.502 24.879H29.1307C28.763 24.879 28.4648 24.5795 28.4648 24.2102V9.46298Z" fill="#EFAC6D"/>
<path id="Vector_5" d="M28.4648 26.3503C28.4648 25.981 28.763 25.6815 29.1307 25.6815H39.9171C40.2848 25.6815 40.5829 25.981 40.5829 26.3503V41.3312C40.5829 41.7005 40.2848 42 39.9171 42H29.1307C28.763 42 28.4648 41.7005 28.4648 41.3312V26.3503Z" fill="#EFAC6D"/>
<path id="Vector_6" d="M41.3818 26.3503C41.3818 25.981 41.68 25.6815 42.0477 25.6815H52.2954C52.9606 25.6815 53.4999 26.2232 53.4999 26.8914V29.8886C53.4999 36.5776 48.1015 42 41.4422 42C41.4089 42 41.3818 41.9728 41.3818 41.9394V26.3503Z" fill="#EFAC6D"/>
</g>
<defs>
<clipPath id="clip0_264_110">
<rect width="53" height="42" fill="white" transform="translate(0.5)"/>
</clipPath>
</defs>
</svg>
