<svg width="136" height="133" viewBox="0 0 136 133" fill="none" xmlns="http://www.w3.org/2000/svg">
<path id="Vector" d="M52.8592 93.1273L47.2308 112.538L41.6023 93.1273C40.1476 88.1133 37.4201 83.5471 33.6772 79.8596C29.9343 76.1722 25.2994 73.4851 20.21 72.0519L0.5 66.5L20.2031 60.9549C25.2925 59.5217 29.9274 56.8346 33.6703 53.1472C37.4132 49.4598 40.1407 44.8936 41.5954 39.8795L47.2308 20.4615L52.8592 39.8727C54.314 44.8867 57.0415 49.4529 60.7844 53.1404C64.5273 56.8278 69.1621 59.5149 74.2515 60.9481L93.9615 66.5L74.2585 72.0451C69.169 73.4782 64.5342 76.1654 60.7913 79.8528C57.0484 83.5402 54.3209 88.1064 52.8662 93.1205L52.8592 93.1273ZM111.332 44.0946L109.538 51.1538L107.745 44.0946C106.719 40.0472 104.596 36.3507 101.602 33.4003C98.6083 30.4498 94.857 28.3562 90.7492 27.3434L83.5769 25.5769L90.7492 23.8104C94.857 22.7976 98.6083 20.7041 101.602 17.7536C104.596 14.8031 106.719 11.1066 107.745 7.05923L109.538 0L111.332 7.05923C112.358 11.1074 114.483 14.8045 117.478 17.7551C120.473 20.7056 124.226 22.7987 128.335 23.8104L135.5 25.5769L128.335 27.3434C124.226 28.3551 120.473 30.4482 117.478 33.3988C114.483 36.3493 112.358 40.0464 111.332 44.0946ZM101.882 124.931L99.1538 133L96.4262 124.931C95.6614 122.671 94.3731 120.618 92.6632 118.933C90.9533 117.248 88.8687 115.979 86.5746 115.226L78.3846 112.538L86.5746 109.851C88.8687 109.098 90.9533 107.829 92.6632 106.144C94.3731 104.459 95.6614 102.406 96.4262 100.146L99.1538 92.0769L101.882 100.146C102.646 102.406 103.935 104.459 105.645 106.144C107.354 107.829 109.439 109.098 111.733 109.851L119.923 112.538L111.733 115.226C109.439 115.979 107.354 117.248 105.645 118.933C103.935 120.618 102.646 122.671 101.882 124.931Z" fill="url(#paint0_linear_334_750)"/>
<defs>
<linearGradient id="paint0_linear_334_750" x1="67.6716" y1="132.694" x2="67.6716" y2="-4.25942" gradientUnits="userSpaceOnUse">
<stop stop-color="#FF856A"/>
<stop offset="1" stop-color="#EFAC6D"/>
</linearGradient>
</defs>
</svg>
